<svg enable-background="new 0 0 360 360" height="360" viewBox="0 0 360 360" width="360" xmlns="http://www.w3.org/2000/svg"><path d="m180.5 306.6c69.6 0 126.1-56.5 126.1-126.1s-56.5-126.1-126.1-126.1-126.1 56.5-126.1 126.1c0 69.6 56.4 126.1 126.1 126.1z" fill="#8ddcfc"/><path clip-rule="evenodd" d="m95.3 195.7c22.8 0 41.3 18.5 41.3 41.3 0 21-15.7 38.4-36.1 41-24.1-19.8-40.8-48.4-45.1-80.8 3.6-1 7.2-1.5 10.9-1.5zm67.3-104.4c0 20.2-14.5 37-33.7 40.6l-.6.1v.3c.2 1.8.4 3.6.4 5.5 0 22.8-18.5 41.3-41.3 41.3h-28.9c-1.3 0-2.6-.1-3.9-.2.7-57.3 39.6-105.3 92.4-120 9.5 7.6 15.6 19.3 15.6 32.4zm86.7 61.8c22.8 0 41.3 18.5 41.3 41.3 0 6.8-1.7 13.5-4.9 19.6l9.3 1.8c2.1.4 4.1 1 6 1.7-6.2 20.2-17.4 38.3-32 52.8h-19.5c-19.2 0-34.8-15.4-35-34.5h-3.2c-22.8 0-41.3-18.5-41.3-41.3s18.5-41.3 41.3-41.3zm-8.3-83.3c22.7 12.4 41.1 31.6 52.6 54.9h-19.4c-3.3 10.6-13.1 18.2-24.7 18.2h-13c-14.3 0-25.9-11.6-25.9-25.9 0-13.7 10.7-25 24.2-25.8 0-.5 0-1 0-1.5 0-7 2.2-13.9 6.2-19.9z" fill="#65ff4a" fill-rule="evenodd" opacity=".732"/><g fill="#bbf3f6"><path clip-rule="evenodd" d="m259.1 253.4c7.1 0 13.2 4.5 15.6 10.8-7.8 8.8-16.8 16.4-26.7 22.7h-38.1c-9.2 0-16.7-7.5-16.7-16.7s7.5-16.7 16.7-16.7z" fill-rule="evenodd"/><path d="m184.8 74.5h-20c-9.2 0-16.7 7.5-16.7 16.7s7.5 16.7 16.7 16.7h20c9.2 0 16.7-7.5 16.7-16.7s-7.5-16.7-16.7-16.7z"/><path clip-rule="evenodd" d="m95.7 87.2h11.3c9.2 0 16.7 7.5 16.7 16.7 0 2.3-.5 4.4-1.3 6.4h5.4c9.2 0 16.7 7.5 16.7 16.7s-7.5 16.7-16.7 16.7h-20c-9.2 0-16.7-7.5-16.7-16.7 0-2.3.4-4.4 1.3-6.4h-23c6.7-12.4 15.5-23.7 25.9-33.2z" fill-rule="evenodd"/></g></svg>