<?xml version="1.0" encoding="UTF-8"?>
<svg id="b" data-name="Layer 2" xmlns="http://www.w3.org/2000/svg" width="1089.736" height="190.798" viewBox="0 0 1089.736 190.798">
  <g id="c" data-name="Layer 1">
    <g>
      <path d="M98.85,44.549c-1.102-2.499-2.801-5.074-5.1-7.725-2.302-2.648-4.626-5.198-6.975-7.65-2.351-2.449-4.401-4.699-6.15-6.75-1.751-2.048-2.625-3.675-2.625-4.875,0-1.999,.999-3,3-3h39.45c1.099,0,1.95,.427,2.55,1.275,.6,.851,1.05,1.852,1.35,3,.3,1.151,.473,2.325,.525,3.525,.049,1.2,.075,2.152,.075,2.85,0,4.702-1.327,9.126-3.975,13.275-2.651,4.151-6.375,7.927-11.175,11.325-1.601,1.102-1.65,2.25-.15,3.45,4.2,3.201,7.35,7.102,9.45,11.7,2.1,4.601,3.15,10.001,3.15,16.2,0,5.901-.926,10.875-2.775,14.925-1.852,4.05-4.376,7.376-7.575,9.975-3.202,2.602-6.876,4.601-11.025,6-4.151,1.401-8.55,2.4-13.2,3-4.65,.6-9.375,.952-14.175,1.05-4.8,.101-9.401,.15-13.8,.15-1.402,0-2.1,.701-2.1,2.1s.698,2.1,2.1,2.1c4.2,0,8.749,.052,13.65,.15,4.898,.101,9.848,.427,14.85,.975,4.999,.551,9.799,1.376,14.4,2.475,4.598,1.102,8.7,2.651,12.3,4.65,3.6,2.001,6.474,4.526,8.625,7.575,2.149,3.049,3.225,6.724,3.225,11.025,0,9.398-5.376,16.374-16.125,20.925-10.751,4.549-27.225,6.825-49.425,6.825-40.8,0-61.2-7.852-61.2-23.55,0-3.502,.999-6.675,3-9.525,1.999-2.85,4.8-5.299,8.4-7.35,3.6-2.049,7.924-3.649,12.975-4.8,5.048-1.148,10.673-1.725,16.875-1.725,1.5,0,3.075,.052,4.725,.15,1.65,.101,3.323,.25,5.025,.45,1.999,.3,3,1.451,3,3.45,0,1-.3,1.826-.9,2.475-.6,.651-1.35,1.076-2.25,1.275-1.901,.3-3.375,1.65-4.425,4.05-1.05,2.4-1.575,5.55-1.575,9.45,0,12,6.049,18,18.15,18,6,0,10.599-1.376,13.8-4.125,3.199-2.751,4.8-6.727,4.8-11.925,0-4.401-1.102-8.076-3.3-11.025-2.201-2.948-5.1-5.475-8.7-7.575-3.6-2.1-7.725-3.949-12.375-5.55-4.65-1.598-9.375-3.225-14.175-4.875-4.8-1.65-9.525-3.525-14.175-5.625s-8.775-4.699-12.375-7.8c-3.6-3.099-6.501-6.9-8.7-11.4-2.201-4.5-3.3-9.949-3.3-16.35,0-6.9,1.324-12.825,3.975-17.775,2.648-4.95,6.499-9.049,11.55-12.3,5.048-3.249,11.224-5.648,18.525-7.2,7.299-1.549,15.6-2.325,24.9-2.325,6.6,0,12.675,.427,18.225,1.275,5.55,.851,10.625,2.025,15.225,3.525,.799,.3,1.399,.277,1.8-.075,.398-.349,.45-.923,.15-1.725Zm-43.35,33.75c0,2.4,.049,5.351,.15,8.85,.099,3.501,.424,6.876,.975,10.125,.548,3.25,1.35,6.026,2.4,8.325,1.05,2.302,2.524,3.45,4.425,3.45,1.999,0,3.525-1.148,4.575-3.45,1.05-2.299,1.8-5.074,2.25-8.325,.45-3.249,.724-6.624,.825-10.125,.098-3.5,.15-6.45,.15-8.85,0-1.999-.052-4.624-.15-7.875-.101-3.249-.375-6.474-.825-9.675-.45-3.199-1.2-5.949-2.25-8.25-1.05-2.299-2.576-3.45-4.575-3.45-1.901,0-3.401,1.151-4.5,3.45-1.102,2.301-1.901,5.025-2.4,8.175-.501,3.15-.801,6.375-.9,9.675-.101,3.3-.15,5.951-.15,7.95Z" fill="#e8e7dc"/>
      <path d="M171.298,113.099c.5-10.099,1.924-19.5,4.275-28.2,2.348-8.7,5.475-16.25,9.375-22.65,3.9-6.398,8.524-11.449,13.875-15.15,5.348-3.698,11.224-5.55,17.625-5.55,.998,0,2.175,.052,3.525,.15,1.35,.101,2.625,.375,3.825,.825,1.2,.45,2.225,1.05,3.075,1.8,.849,.75,1.275,1.826,1.275,3.225v38.7c0,2.001-.375,3.375-1.125,4.125s-1.776,1.125-3.075,1.125c-1.702,0-3.802-.525-6.3-1.575-2.5-1.05-5.125-2.198-7.875-3.45-2.751-1.249-5.526-2.4-8.325-3.45-2.801-1.05-5.351-1.575-7.65-1.575-2.001,0-3.926,.551-5.775,1.65-1.852,1.102-3.476,3.075-4.875,5.925-1.401,2.85-2.526,6.727-3.375,11.625-.851,4.901-1.275,11.201-1.275,18.9v15c0,2.001-1.001,3-3,3h-41.25c-2.001,0-3-.999-3-3V47.549c0-1.999,.999-3,3-3h42.75c1.999,0,3,1.001,3,3,0,3.701-.675,7.676-2.025,11.925-1.35,4.252-2.85,9-4.5,14.25s-3.176,11.1-4.575,17.55c-1.401,6.45-2.201,13.776-2.4,21.975,0,1.601,.799,2.4,2.4,2.4s2.4-.849,2.4-2.55Z" fill="#e8e7dc"/>
      <path d="M305.848,134.399c0-3.199,.023-6.424,.075-9.675,.049-3.248,0-6.6-.15-10.05s-.401-7.024-.75-10.725c-.352-3.698-.926-7.65-1.725-11.85-2.001-10.099-4.5-18-7.5-23.7-3-5.7-6.25-8.55-9.75-8.55-2.901,0-5.25,2.002-7.05,6-1.8,4.001-2.951,9-3.45,15-.401,5.801-.026,10.601,1.125,14.4,1.148,3.801,3.173,5.7,6.075,5.7,1.598,0,3.049-.6,4.35-1.8,1.298-1.2,2.348-2.85,3.15-4.95,.799-2.1,2.4-3.15,4.8-3.15,2.299,0,3.6,1.001,3.9,3,1.1,6.6,1.174,12.727,.225,18.375-.952,5.651-2.726,10.575-5.325,14.775-2.602,4.2-5.925,7.477-9.975,9.825-4.05,2.348-8.625,3.525-13.725,3.525-5.501,0-10.477-1.35-14.925-4.05-4.451-2.7-8.175-6.398-11.175-11.1-3-4.699-5.227-10.298-6.675-16.8-1.451-6.499-1.927-13.549-1.425-21.15,.5-6.9,1.699-13.148,3.6-18.75,1.898-5.599,4.374-10.425,7.425-14.475,3.049-4.05,6.649-7.174,10.8-9.375,4.148-2.198,8.625-3.3,13.425-3.3,5.199,0,9.825,1.2,13.875,3.6,4.05,2.4,7.625,5.55,10.725,9.45,3.099,3.9,5.75,8.377,7.95,13.425,2.198,5.051,3.975,10.226,5.325,15.525,1.35,5.302,2.349,10.526,3,15.675,.649,5.152,.975,9.776,.975,13.875,0,1.702,.799,2.55,2.4,2.55s2.4-.799,2.4-2.4c0-8-.701-15.225-2.1-21.675-1.402-6.45-2.951-12.3-4.65-17.55-1.702-5.25-3.251-10.024-4.65-14.325-1.401-4.298-2.1-8.299-2.1-12,0-2.1,1.05-3.15,3.15-3.15h42.45c2.1,0,3.15,1.05,3.15,3.15v86.7c0,2.1-1.05,3.15-3.15,3.15h-40.95c-2.1,0-3.15-1.05-3.15-3.15Z" fill="#e8e7dc"/>
      <path d="M402.146,113.099c.5-10.099,1.924-19.5,4.275-28.2,2.348-8.7,5.475-16.25,9.375-22.65,3.9-6.398,8.524-11.449,13.875-15.15,5.348-3.698,11.224-5.55,17.625-5.55,9,0,15.375,3.701,19.125,11.1,3.75,7.401,5.625,17.951,5.625,31.65v50.25c0,2.001-1.001,3-3,3h-42.75c-2.002,0-3-.999-3-3,0-9.9,.45-18.3,1.35-25.2,.9-6.9,1.898-12.9,3-18,1.1-5.1,2.1-9.574,3-13.425,.9-3.849,1.35-7.725,1.35-11.625,0-4.298-.9-6.45-2.7-6.45-1.901,0-4.001,1.676-6.3,5.025-2.301,3.352-4.451,7.8-6.45,13.35-2.002,5.55-3.701,11.902-5.1,19.05-1.402,7.151-2.1,14.576-2.1,22.275v15c0,2.001-1.001,3-3,3h-41.25c-2.001,0-3-.999-3-3V47.549c0-1.999,.999-3,3-3h42.75c1.999,0,3,1.001,3,3,0,3.701-.675,7.676-2.025,11.925-1.35,4.252-2.85,9-4.5,14.25s-3.176,11.1-4.575,17.55c-1.401,6.45-2.201,13.776-2.4,21.975,0,1.601,.799,2.4,2.4,2.4s2.4-.849,2.4-2.55Z" fill="#e8e7dc"/>
      <path d="M551.246,134.399c0-3.199,.023-6.424,.075-9.675,.049-3.248,0-6.6-.15-10.05s-.401-7.024-.75-10.725c-.352-3.698-.926-7.65-1.725-11.85-2.001-10.099-4.5-18-7.5-23.7-3-5.7-6.25-8.55-9.75-8.55-2.901,0-5.25,2.002-7.05,6-1.8,4.001-2.951,9-3.45,15-.401,5.801-.026,10.601,1.125,14.4,1.148,3.801,3.173,5.7,6.075,5.7,1.598,0,3.049-.6,4.35-1.8,1.298-1.2,2.348-2.85,3.15-4.95,.799-2.1,2.4-3.15,4.8-3.15,2.299,0,3.6,1.001,3.9,3,1.1,6.6,1.174,12.727,.225,18.375-.952,5.651-2.726,10.575-5.325,14.775-2.602,4.2-5.925,7.477-9.975,9.825-4.05,2.348-8.625,3.525-13.725,3.525-5.501,0-10.477-1.35-14.925-4.05-4.451-2.7-8.175-6.398-11.175-11.1-3-4.699-5.227-10.298-6.675-16.8-1.451-6.499-1.927-13.549-1.425-21.15,.5-6.9,1.699-13.148,3.6-18.75,1.898-5.599,4.374-10.425,7.425-14.475,3.049-4.05,6.649-7.174,10.8-9.375,4.148-2.198,8.625-3.3,13.425-3.3,5.1,0,9.675,1.177,13.725,3.525,4.05,2.351,7.625,5.475,10.725,9.375,3.099,3.9,5.749,8.351,7.95,13.35,2.198,5.001,3.998,10.151,5.4,15.45,1.399,5.301,2.423,10.551,3.075,15.75,.649,5.201,.975,9.9,.975,14.1,0,1.702,.799,2.55,2.4,2.55s2.4-.799,2.4-2.4c0-7.5-.701-14.325-2.1-20.475-1.402-6.15-2.951-12.225-4.65-18.225-1.702-6-3.251-12.124-4.65-18.375-1.401-6.249-2.1-13.174-2.1-20.775V15.599c0-2.1,1.05-3.15,3.15-3.15h42.45c2.1,0,3.15,1.05,3.15,3.15v118.8c0,2.1-1.05,3.15-3.15,3.15h-40.95c-2.1,0-3.15-1.05-3.15-3.15Z" fill="#e8e7dc"/>
      <path d="M658.344,134.549c0,2.001-1.001,3-3,3h-44.85c-2.001,0-3-.999-3-3,.698-9.999,1.374-19.95,2.025-29.85,.649-9.9,1.125-19.8,1.425-29.7,.3-9.9,.323-19.8,.075-29.7-.25-9.9-.926-19.849-2.025-29.85,0-1.999,.999-3,3-3h41.85c1.999,0,3,1.001,3,3-1.102,10.001-1.777,19.95-2.025,29.85-.251,9.9-.225,19.8,.075,29.7,.3,9.9,.773,19.8,1.425,29.7,.649,9.9,1.324,19.852,2.025,29.85Z" fill="#e8e7dc"/>
      <path d="M716.692,134.549c0,.701-.277,1.376-.825,2.025-.551,.652-1.275,.975-2.175,.975h-44.1c-.9,0-1.626-.323-2.175-.975-.551-.649-.825-1.324-.825-2.025,.698-7.399,1.374-14.775,2.025-22.125,.649-7.35,1.125-14.648,1.425-21.9,.3-7.25,.323-14.475,.075-21.675-.25-7.2-.926-14.299-2.025-21.3,0-.698,.274-1.374,.825-2.025,.548-.649,1.275-.975,2.175-.975h41.1c.9,0,1.624,.326,2.175,.975,.548,.651,.825,1.327,.825,2.025-1.102,7.001-1.777,14.1-2.025,21.3-.251,7.2-.225,14.426,.075,21.675,.3,7.251,.773,14.55,1.425,21.9,.649,7.35,1.324,14.726,2.025,22.125Zm-49.35-112.05c0-5.899,2.224-10.25,6.675-13.05,4.449-2.798,10.374-4.2,17.775-4.2,7.298,0,13.174,1.401,17.625,4.2,4.448,2.801,6.675,7.151,6.675,13.05,0,6-2.227,10.425-6.675,13.275-4.451,2.85-10.327,4.275-17.625,4.275-7.402,0-13.327-1.425-17.775-4.275-4.451-2.85-6.675-7.275-6.675-13.275Z" fill="#e8e7dc"/>
      <path d="M764.99,113.099c.5-10.099,1.924-19.5,4.275-28.2,2.348-8.7,5.475-16.25,9.375-22.65,3.9-6.398,8.524-11.449,13.875-15.15,5.348-3.698,11.224-5.55,17.625-5.55,9,0,15.375,3.701,19.125,11.1,3.75,7.401,5.625,17.951,5.625,31.65v50.25c0,2.001-1.001,3-3,3h-42.75c-2.002,0-3-.999-3-3,0-9.9,.45-18.3,1.35-25.2,.9-6.9,1.898-12.9,3-18,1.1-5.1,2.1-9.574,3-13.425,.9-3.849,1.35-7.725,1.35-11.625,0-4.298-.9-6.45-2.7-6.45-1.901,0-4.001,1.676-6.3,5.025-2.301,3.352-4.451,7.8-6.45,13.35-2.002,5.55-3.701,11.902-5.1,19.05-1.402,7.151-2.1,14.576-2.1,22.275v15c0,2.001-1.001,3-3,3h-41.25c-2.001,0-3-.999-3-3V47.549c0-1.999,.999-3,3-3h42.75c1.999,0,3,1.001,3,3,0,3.701-.675,7.676-2.025,11.925-1.35,4.252-2.85,9-4.5,14.25s-3.176,11.1-4.575,17.55c-1.401,6.45-2.201,13.776-2.4,21.975,0,1.601,.799,2.4,2.4,2.4s2.4-.849,2.4-2.55Z" fill="#e8e7dc"/>
      <path d="M938.24,44.549c-1.102-2.499-2.801-5.074-5.1-7.725-2.302-2.648-4.626-5.198-6.975-7.65-2.351-2.449-4.401-4.699-6.15-6.75-1.751-2.048-2.625-3.675-2.625-4.875,0-1.999,.999-3,3-3h39.45c1.099,0,1.95,.427,2.55,1.275,.6,.851,1.05,1.852,1.35,3,.3,1.151,.473,2.325,.525,3.525,.049,1.2,.075,2.152,.075,2.85,0,4.702-1.327,9.126-3.975,13.275-2.651,4.151-6.375,7.927-11.175,11.325-1.601,1.102-1.65,2.25-.15,3.45,4.2,3.201,7.35,7.102,9.45,11.7,2.1,4.601,3.15,10.001,3.15,16.2,0,5.901-.926,10.875-2.775,14.925-1.852,4.05-4.376,7.376-7.575,9.975-3.202,2.602-6.876,4.601-11.025,6-4.151,1.401-8.55,2.4-13.2,3-4.65,.6-9.375,.952-14.175,1.05-4.8,.101-9.401,.15-13.8,.15-1.402,0-2.1,.701-2.1,2.1s.698,2.1,2.1,2.1c4.2,0,8.749,.052,13.65,.15,4.898,.101,9.848,.427,14.85,.975,4.999,.551,9.799,1.376,14.4,2.475,4.598,1.102,8.7,2.651,12.3,4.65,3.6,2.001,6.474,4.526,8.625,7.575,2.149,3.049,3.225,6.724,3.225,11.025,0,9.398-5.376,16.374-16.125,20.925-10.751,4.549-27.225,6.825-49.425,6.825-40.8,0-61.2-7.852-61.2-23.55,0-3.502,.999-6.675,3-9.525,1.999-2.85,4.8-5.299,8.4-7.35,3.6-2.049,7.924-3.649,12.975-4.8,5.048-1.148,10.673-1.725,16.875-1.725,1.5,0,3.075,.052,4.725,.15,1.65,.101,3.323,.25,5.025,.45,1.999,.3,3,1.451,3,3.45,0,1-.3,1.826-.9,2.475-.6,.651-1.35,1.076-2.25,1.275-1.901,.3-3.375,1.65-4.425,4.05-1.05,2.4-1.575,5.55-1.575,9.45,0,12,6.049,18,18.15,18,6,0,10.599-1.376,13.8-4.125,3.199-2.751,4.8-6.727,4.8-11.925,0-4.401-1.102-8.076-3.3-11.025-2.201-2.948-5.1-5.475-8.7-7.575-3.6-2.1-7.725-3.949-12.375-5.55-4.65-1.598-9.375-3.225-14.175-4.875-4.8-1.65-9.525-3.525-14.175-5.625s-8.775-4.699-12.375-7.8c-3.6-3.099-6.501-6.9-8.7-11.4-2.201-4.5-3.3-9.949-3.3-16.35,0-6.9,1.324-12.825,3.975-17.775,2.648-4.95,6.499-9.049,11.55-12.3,5.048-3.249,11.224-5.648,18.525-7.2,7.299-1.549,15.6-2.325,24.9-2.325,6.6,0,12.675,.427,18.225,1.275,5.55,.851,10.625,2.025,15.225,3.525,.799,.3,1.399,.277,1.8-.075,.398-.349,.45-.923,.15-1.725Zm-43.35,33.75c0,2.4,.049,5.351,.15,8.85,.099,3.501,.424,6.876,.975,10.125,.548,3.25,1.35,6.026,2.4,8.325,1.05,2.302,2.524,3.45,4.425,3.45,1.999,0,3.525-1.148,4.575-3.45,1.05-2.299,1.8-5.074,2.25-8.325,.45-3.249,.724-6.624,.825-10.125,.098-3.5,.15-6.45,.15-8.85,0-1.999-.052-4.624-.15-7.875-.101-3.249-.375-6.474-.825-9.675-.45-3.199-1.2-5.949-2.25-8.25-1.05-2.299-2.576-3.45-4.575-3.45-1.901,0-3.401,1.151-4.5,3.45-1.102,2.301-1.901,5.025-2.4,8.175-.501,3.15-.801,6.375-.9,9.675-.101,3.3-.15,5.951-.15,7.95Z" fill="#e8e7dc"/>
      <path d="M1004.538,137.549c-5.001,0-9.577-1.099-13.725-3.3-4.15-2.199-7.725-5.25-10.725-9.15-3-3.9-5.325-8.55-6.975-13.95s-2.475-11.299-2.475-17.7c0-8.1,1.324-15.349,3.975-21.75,2.648-6.398,6.45-11.824,11.4-16.275,4.95-4.448,10.974-7.875,18.075-10.275,7.099-2.4,15.098-3.6,24-3.6s16.875,1.2,23.925,3.6,13.024,5.827,17.925,10.275c4.898,4.451,8.674,9.876,11.325,16.275,2.648,6.401,3.975,13.65,3.975,21.75,0,6.401-.825,12.3-2.475,17.7s-3.975,10.05-6.975,13.95c-3,3.9-6.551,6.952-10.65,9.15-4.102,2.201-8.651,3.3-13.65,3.3h-46.95Zm17.4-16.65c.5,1.2,1.324,2.125,2.475,2.775,1.148,.651,2.375,.975,3.675,.975s2.475-.3,3.525-.9c1.05-.6,1.823-1.449,2.325-2.55,.5-1.298,.875-3.574,1.125-6.825,.249-3.249,.375-7.024,.375-11.325s-.075-8.85-.225-13.65c-.15-4.8-.375-9.349-.675-13.65-.3-4.299-.651-8.1-1.05-11.4-.401-3.3-.802-5.599-1.2-6.9-.401-1.2-1-2.1-1.8-2.7-.802-.6-1.65-.9-2.55-.9-2.001,0-3.4,1.05-4.2,3.15-.501,1.301-.952,3.6-1.35,6.9-.401,3.3-.75,7.125-1.05,11.475-.3,4.35-.525,8.925-.675,13.725-.15,4.8-.202,9.352-.15,13.65,.049,4.301,.173,8.076,.375,11.325,.199,3.251,.548,5.527,1.05,6.825Z" fill="#e8e7dc"/>
    </g>
  </g>
</svg>