<?xml version="1.0" encoding="UTF-8"?>
<svg id="b" data-name="Layer 2" xmlns="http://www.w3.org/2000/svg" width="78" height="62" viewBox="0 0 78 62">
  <g id="c" data-name="Layer 1">
    <g id="d" data-name="es">
      <g id="e" data-name="Group">
        <path id="f" data-name="Rectangle-3" d="M61.437,2H16.563c-4.935,0-6.696,.585-8.493,1.545-1.951,1.043-3.482,2.574-4.525,4.525-.961,1.797-1.545,3.558-1.545,8.493v28.874c0,4.935,.585,6.696,1.545,8.493,1.043,1.951,2.574,3.482,4.525,4.525,1.797,.961,3.558,1.545,8.493,1.545H61.437c4.935,0,6.696-.585,8.493-1.545,1.951-1.043,3.482-2.574,4.525-4.525,.961-1.797,1.545-3.558,1.545-8.493V16.563c0-4.935-.585-6.696-1.545-8.493-1.043-1.951-2.574-3.482-4.525-4.525-1.797-.961-3.558-1.545-8.493-1.545Z" fill="#ff4b4b" fill-rule="evenodd" stroke="#fff" stroke-width="4"/>
        <polygon id="g" data-name="Rectangle-4" points="4 19.429 74 19.429 74 42.571 4 42.571 4 19.429" fill="#ffc800" fill-rule="evenodd"/>
        <path id="h" data-name="Rectangle-14" d="M31.222,25.214c1.074,0,1.944,.871,1.944,1.944v7.683c0,1.074-.871,1.944-1.944,1.944s-1.944-.871-1.944-1.944v-7.683c0-1.074,.871-1.944,1.944-1.944Z" fill="#fff" fill-rule="evenodd"/>
        <path id="i" data-name="Rectangle-14-Copy" d="M11.778,25.214c1.074,0,1.944,.871,1.944,1.944v7.683c0,1.074-.871,1.944-1.944,1.944s-1.944-.871-1.944-1.944v-7.683c0-1.074,.871-1.944,1.944-1.944Z" fill="#fff" fill-rule="evenodd"/>
        <path id="j" data-name="Rectangle-15" d="M17.417,23.286h8.167c.966,0,1.75,.784,1.75,1.75v7.845c0,3.222-2.612,5.833-5.833,5.833s-5.833-2.612-5.833-5.833v-7.845c0-.966,.784-1.75,1.75-1.75Z" fill="#ff4b4b" fill-rule="evenodd"/>
      </g>
    </g>
  </g>
</svg>